<svg width="172" height="35" viewBox="0 0 172 35" fill="none" xmlns="http://www.w3.org/2000/svg">
<ellipse cx="16.5503" cy="10.0305" rx="2.17899" ry="1.51976" fill="#3D6B2C"/>
<ellipse cx="16.9862" cy="10.9424" rx="0.435797" ry="0.303951" fill="white"/>
<ellipse cx="22.6515" cy="10.0305" rx="2.17899" ry="1.51976" fill="#3D6B2C"/>
<ellipse cx="23.0873" cy="10.9424" rx="0.435797" ry="0.303951" fill="white"/>
<path d="M22.6515 5.50689C22.6515 6.60363 21.398 7.65958 19.6009 7.65958C17.8038 7.65958 17.0001 6.92868 16.5504 5.7572C16.0001 3.92868 18.8383 0.750946 18.8383 0.750946C18.8383 0.750946 22.6515 4.41016 22.6515 5.50689Z" fill="#3D6B2C"/>
<path d="M1 13.4287L39 13" stroke="#3D6B2C" stroke-width="2" stroke-linecap="round"/>
<path d="M67.3485 14.2266V32H64.9804L56.0326 18.2915V32H53.6767V14.2266H56.0326L65.017 27.9717V14.2266H67.3485ZM79.3876 28.9482V18.792H81.6581V32H79.4975L79.3876 28.9482ZM79.8148 26.165L80.7548 26.1406C80.7548 27.0195 80.6612 27.8333 80.474 28.582C80.295 29.3226 80.002 29.9655 79.5951 30.5107C79.1882 31.056 78.6552 31.4832 77.996 31.7925C77.3368 32.0936 76.5352 32.2441 75.5912 32.2441C74.9483 32.2441 74.3583 32.1506 73.8212 31.9634C73.2922 31.7762 72.8365 31.4873 72.454 31.0967C72.0715 30.7061 71.7745 30.1974 71.5629 29.5708C71.3594 28.9442 71.2577 28.1914 71.2577 27.3125V18.792H73.516V27.3369C73.516 27.931 73.5811 28.4233 73.7113 28.814C73.8497 29.1965 74.0328 29.5016 74.2607 29.7295C74.4967 29.9492 74.7571 30.1038 75.0419 30.1934C75.3349 30.2829 75.636 30.3276 75.9452 30.3276C76.9055 30.3276 77.6664 30.1445 78.2279 29.7783C78.7895 29.404 79.1923 28.9035 79.4364 28.2769C79.6887 27.6421 79.8148 26.9382 79.8148 26.165ZM90.7553 18.792V20.5254H83.6142V18.792H90.7553ZM86.0312 15.5815H88.2895V28.7285C88.2895 29.1761 88.3586 29.5138 88.497 29.7417C88.6353 29.9696 88.8144 30.1201 89.0341 30.1934C89.2538 30.2666 89.4898 30.3032 89.7421 30.3032C89.9293 30.3032 90.1246 30.2869 90.328 30.2544C90.5396 30.2137 90.6983 30.1812 90.8041 30.1567L90.8163 32C90.6373 32.057 90.4013 32.1099 90.1083 32.1587C89.8235 32.2157 89.4776 32.2441 89.0707 32.2441C88.5173 32.2441 88.0087 32.1343 87.5448 31.9146C87.081 31.6948 86.7107 31.3286 86.434 30.8159C86.1654 30.2951 86.0312 29.5952 86.0312 28.7163V15.5815ZM95.7875 20.8672V32H93.5292V18.792H95.7265L95.7875 20.8672ZM99.9135 18.7188L99.9013 20.8184C99.7141 20.7777 99.5351 20.7533 99.3642 20.7451C99.2014 20.7288 99.0142 20.7207 98.8026 20.7207C98.2818 20.7207 97.822 20.8021 97.4232 20.9648C97.0245 21.1276 96.6868 21.3555 96.4101 21.6484C96.1334 21.9414 95.9136 22.2913 95.7509 22.6982C95.5963 23.097 95.4945 23.5365 95.4457 24.0166L94.8109 24.3828C94.8109 23.5853 94.8883 22.8366 95.0429 22.1367C95.2056 21.4368 95.4538 20.8184 95.7875 20.2812C96.1212 19.736 96.5443 19.3128 97.057 19.0117C97.5779 18.7025 98.1964 18.5479 98.9125 18.5479C99.0753 18.5479 99.2624 18.5682 99.474 18.6089C99.6856 18.6414 99.8321 18.6781 99.9135 18.7188ZM104.579 18.792V32H102.309V18.792H104.579ZM102.138 15.2886C102.138 14.9224 102.248 14.6131 102.468 14.3608C102.696 14.1086 103.029 13.9824 103.469 13.9824C103.9 13.9824 104.23 14.1086 104.457 14.3608C104.693 14.6131 104.811 14.9224 104.811 15.2886C104.811 15.6385 104.693 15.9396 104.457 16.1919C104.23 16.436 103.9 16.5581 103.469 16.5581C103.029 16.5581 102.696 16.436 102.468 16.1919C102.248 15.9396 102.138 15.6385 102.138 15.2886ZM109.416 14.2266H111.699L117.522 28.7163L123.332 14.2266H125.627L118.401 32H116.619L109.416 14.2266ZM108.672 14.2266H110.686L111.016 25.0664V32H108.672V14.2266ZM124.346 14.2266H126.36V32H124.016V25.0664L124.346 14.2266ZM132.735 18.792V32H130.464V18.792H132.735ZM130.293 15.2886C130.293 14.9224 130.403 14.6131 130.623 14.3608C130.851 14.1086 131.184 13.9824 131.624 13.9824C132.055 13.9824 132.385 14.1086 132.613 14.3608C132.849 14.6131 132.967 14.9224 132.967 15.2886C132.967 15.6385 132.849 15.9396 132.613 16.1919C132.385 16.436 132.055 16.5581 131.624 16.5581C131.184 16.5581 130.851 16.436 130.623 16.1919C130.403 15.9396 130.293 15.6385 130.293 15.2886ZM138.744 21.6118V32H136.485V18.792H138.621L138.744 21.6118ZM138.206 24.8955L137.267 24.8589C137.275 23.9556 137.409 23.1214 137.669 22.3564C137.93 21.5833 138.296 20.9119 138.768 20.3423C139.24 19.7726 139.802 19.3332 140.453 19.0239C141.112 18.7065 141.84 18.5479 142.638 18.5479C143.289 18.5479 143.875 18.6374 144.395 18.8164C144.916 18.9873 145.36 19.264 145.726 19.6465C146.1 20.029 146.385 20.5254 146.58 21.1357C146.776 21.738 146.873 22.4744 146.873 23.3452V32H144.603V23.3208C144.603 22.6291 144.501 22.0757 144.298 21.6606C144.094 21.2375 143.797 20.9323 143.407 20.7451C143.016 20.5498 142.536 20.4521 141.966 20.4521C141.405 20.4521 140.892 20.5701 140.428 20.8062C139.972 21.0422 139.578 21.3677 139.244 21.7827C138.919 22.1978 138.662 22.6738 138.475 23.2109C138.296 23.7399 138.206 24.3014 138.206 24.8955ZM158.754 29.4365V13.25H161.024V32H158.949L158.754 29.4365ZM149.867 25.5425V25.2861C149.867 24.277 149.989 23.3615 150.233 22.5396C150.486 21.7095 150.84 20.9974 151.295 20.4033C151.759 19.8092 152.309 19.3535 152.943 19.0361C153.586 18.7106 154.302 18.5479 155.092 18.5479C155.922 18.5479 156.646 18.6943 157.265 18.9873C157.891 19.2721 158.42 19.6912 158.851 20.2446C159.291 20.7899 159.637 21.4491 159.889 22.2222C160.141 22.9953 160.316 23.8701 160.414 24.8467V25.9697C160.324 26.9382 160.149 27.8089 159.889 28.582C159.637 29.3551 159.291 30.0143 158.851 30.5596C158.42 31.1048 157.891 31.5239 157.265 31.8169C156.638 32.1017 155.906 32.2441 155.067 32.2441C154.294 32.2441 153.586 32.0773 152.943 31.7437C152.309 31.41 151.759 30.9421 151.295 30.3398C150.84 29.7376 150.486 29.0296 150.233 28.2158C149.989 27.3939 149.867 26.5028 149.867 25.5425ZM152.138 25.2861V25.5425C152.138 26.2017 152.203 26.8201 152.333 27.3979C152.471 27.9757 152.683 28.4844 152.968 28.9238C153.253 29.3633 153.615 29.7091 154.054 29.9614C154.494 30.2056 155.018 30.3276 155.629 30.3276C156.378 30.3276 156.992 30.1689 157.472 29.8516C157.96 29.5342 158.351 29.1151 158.644 28.5942C158.937 28.0734 159.165 27.5078 159.328 26.8975V23.9556C159.23 23.508 159.087 23.0767 158.9 22.6616C158.721 22.2384 158.485 21.8641 158.192 21.5386C157.907 21.2049 157.553 20.9404 157.13 20.7451C156.715 20.5498 156.223 20.4521 155.653 20.4521C155.035 20.4521 154.502 20.5824 154.054 20.8428C153.615 21.0951 153.253 21.445 152.968 21.8926C152.683 22.332 152.471 22.8447 152.333 23.4307C152.203 24.0085 152.138 24.627 152.138 25.2861Z" fill="#3D6B2C"/>
<g clip-path="url(#clip0_623_1741)">
<path d="M27.2187 21.114L27.8659 21.289C28.8134 21.6991 30.0887 21.875 31.4953 21.875C36.7853 21.875 38.3497 21.6529 38.8095 20.7874L31.9247 20.6843C31.6325 20.6843 31.3488 20.5308 31.3488 20.3027V20.1679C31.3488 19.9397 31.6695 19.7867 31.969 19.7867L39.0001 19.384C38.9995 19.2804 38.9988 19.1745 38.9995 19.0625C38.9995 18.8666 38.9975 18.6855 38.9922 18.5162L31.8694 18.1144C31.5956 18.1153 31.3495 17.9619 31.3495 17.7337V17.5989C31.3495 17.3707 31.6701 17.2172 31.9697 17.2172L38.6459 17.1173C37.9875 16.2509 36.1151 16.25 30.825 16.25C29.3986 16.25 28.2664 16.4296 27.4787 16.8523C27.0452 16.9918 26.5299 17.1584 25.9869 17.3357C25.6141 17.4575 25.2315 17.583 24.8528 17.7085C24.3922 17.8611 23.9462 18.0113 23.5385 18.1508L1.94888 17.7533C1.43956 17.7533 1.00012 18.5194 1.00012 18.8797V19.4726C1.00012 19.8328 1.47909 20.5989 1.98849 20.5989L23.8269 20.1963L25.4414 20.633L27.2187 21.114ZM2.61193 19.091C2.61193 18.6944 3.06655 18.3729 3.62733 18.3729C4.18811 18.3729 4.64272 18.6944 4.64272 19.091C4.64272 19.4876 4.18811 19.8091 3.62733 19.8091C3.06655 19.8091 2.61193 19.4876 2.61193 19.091Z" fill="#3D6B2C"/>
<path d="M30.862 29.75C33.893 29.75 38.648 28.4963 38.648 26.375C38.648 24.2537 33.8937 23 30.862 23C28.3466 23 26.2309 23.8658 25.5828 25.3721L1.50541 24.9325C0.999767 24.9325 0.677368 25.6859 0.677368 26.0398V26.6226C0.677368 26.9765 0.999767 27.7299 1.50541 27.7299L25.5489 27.2907C26.1517 28.8507 28.2987 29.75 30.862 29.75ZM2.30477 26.375C2.30477 25.9787 2.76378 25.6575 3.32999 25.6575C3.89619 25.6575 4.3552 25.9787 4.3552 26.375C4.3552 26.7713 3.89619 27.0925 3.32999 27.0925C2.76378 27.093 2.30477 26.7713 2.30477 26.375Z" fill="#3D6B2C"/>
</g>
<path d="M1 33.4287L39 33" stroke="#3D6B2C" stroke-width="2" stroke-linecap="round"/>
<defs>
<clipPath id="clip0_623_1741">
<rect width="18" height="38" fill="white" transform="matrix(0 -1 1 0 1 32)"/>
</clipPath>
</defs>
</svg>
